<?xml version="1.0" encoding="UTF-8"?>
<!DOCTYPE svg PUBLIC "-//W3C//DTD SVG 1.1//EN" "http://www.w3.org/Graphics/SVG/1.1/DTD/svg11.dtd">
<!-- Creator: CorelDRAW 2026 -->
<svg xmlns="http://www.w3.org/2000/svg" xml:space="preserve" width="45.1692mm" height="40.5663mm" version="1.1" style="shape-rendering:geometricPrecision; text-rendering:geometricPrecision; image-rendering:optimizeQuality; fill-rule:evenodd; clip-rule:evenodd"
viewBox="0 0 148.55 133.41"
 xmlns:xlink="http://www.w3.org/1999/xlink"
 xmlns:xodm="http://www.corel.com/coreldraw/odm/2003">
 <defs>
  <style type="text/css">
   <![CDATA[
    .fil0 {fill:url(#id0)}
   ]]>
  </style>
  <linearGradient id="id0" gradientUnits="userSpaceOnUse" x1="37.74" y1="12.21" x2="48.24" y2="115.75">
   <stop offset="0" style="stop-opacity:1; stop-color:#1C3FB5"/>
   <stop offset="1" style="stop-opacity:1; stop-color:#1D77D8"/>
  </linearGradient>
 </defs>
 <g id="Layer_x0020_1">
  <metadata id="CorelCorpID_0Corel-Layer"/>
  <path class="fil0" d="M108.18 95.47l-47.43 0c0,0 -16.75,-0.2 -23.01,9.69 -6.26,9.89 -14.13,28.26 -14.13,28.26l84.57 -37.94zm-108.18 -95.47l30.27 66c0,0 9.49,22.81 35.93,22.81 26.44,0 82.35,0 82.35,0 0,0 -25.43,-6.26 -50.86,-28.66 -25.43,-22.4 -41.17,-41.78 -41.17,-41.78 0,0 -8.68,-11.3 -15.74,-14.53 -7.06,-3.23 -11.91,-3.84 -16.95,-3.63 -5.05,0.2 -23.82,-0.2 -23.82,-0.2z"/>
 </g>
</svg>
